<?xml version="1.0" encoding="UTF-8"?>
<!-- Generated by Pixelmator Pro 3.5.3 -->
<svg width="822" height="1122" viewBox="0 0 822 1122" xmlns="http://www.w3.org/2000/svg">
    <path id="Rectangle" fill="none" stroke="#ffffff" stroke-width="49" d="M 0 1061 C -0 1094.689331 27.310631 1122 61 1122 L 761 1122 C 794.689392 1122 822 1094.689331 822 1061 L 822 61 C 822 27.310669 794.689392 0 761 0 L 61 0 C 27.310631 0 0 27.310669 0 61 Z"/>
    <g id="Group">
        <path id="path1" fill="#ffffff" fill-opacity="0.795712" fill-rule="evenodd" stroke="none" d="M 410.996155 1122 L 756.150085 1122 L 756.150085 1040.248291 L 410.996155 1040.248291 Z"/>
        <text id="data--OpenStreetMap-contributors" transform="matrix(1 0.000404 -0.000404 1 0.435478 -0.237327)" xml:space="preserve"><tspan x="417" y="1063" font-family="Times New Roman" font-size="21.7" fill="#2f3737" xml:space="preserve">data © OpenStreetMap contributors</tspan><tspan x="417" y="1085.521826" font-family="Times New Roman" font-size="21.7" fill="#2f3737" xml:space="preserve">github.com/marceloprates/prettymaps</tspan></text>
    </g>
    <path id="Rectangle-copy" fill="none" stroke="#2f3737" stroke-width="11" d="M 22 1047 C 22 1076.271118 45.728909 1100 75 1100 L 747 1100 C 776.271118 1100 800 1076.271118 800 1047 L 800 75 C 800 45.728882 776.271118 22 747 22 L 75 22 C 45.728909 22 22 45.728882 22 75 Z"/>
    <path id="Rectangle-copy-2" fill="#ffffff" fill-rule="evenodd" stroke="#2f3737" stroke-width="11" d="M 52 323 C 52 339.016235 64.983742 352 81 352 L 740 352 C 756.016235 352 769 339.016235 769 323 L 769 80 C 769 63.983765 756.016235 51 740 51 L 81 51 C 64.983742 51 52 63.983765 52 80 Z"/>
</svg>
