<?xml version="1.0" encoding="UTF-8"?>
<!-- Generated by Pixelmator Pro 3.5.3 -->
<svg width="500" height="683" viewBox="0 0 500 683" xmlns="http://www.w3.org/2000/svg">
    <path id="Rectangle" fill="none" stroke="#ffffff" stroke-width="29.816669" d="M 0 645.881287 C -0 666.381409 16.618612 683 37.11871 683 L 462.881287 683 C 483.381378 683 500 666.381409 500 645.881287 L 500 37.118713 C 500 16.618591 483.381378 0 462.881287 0 L 37.11871 0 C 16.618612 0 0 16.618591 0 37.118713 Z"/>
    <g id="Group">
        <path id="path1" fill="#ffffff" fill-opacity="0.795712" fill-rule="evenodd" stroke="none" d="M 249.997665 683 L 459.945313 683 L 459.945313 633.234985 L 249.997665 633.234985 Z"/>
        <text id="data--OpenStreetMap-contributors" transform="matrix(1 0.000404 -0.000404 1 0.265126 -0.144416)" xml:space="preserve"><tspan x="253" y="647" font-family="Times New Roman" font-size="13.204525" fill="#2f3737" xml:space="preserve">data © OpenStreetMap contributors</tspan><tspan x="253" y="661.060934" font-family="Times New Roman" font-size="13.204525" fill="#2f3737" xml:space="preserve">github.com/marceloprates/prettymaps</tspan></text>
    </g>
    <path id="Rectangle-copy" fill="none" stroke="#2f3737" stroke-width="6.693538" d="M 13.381995 637.357178 C 13.381995 655.168701 27.821117 669.607849 45.632679 669.607849 L 454.36731 669.607849 C 472.178864 669.607849 486.618011 655.168701 486.618011 637.357178 L 486.618011 45.642822 C 486.618011 27.831299 472.178864 13.392151 454.36731 13.392151 L 45.632679 13.392151 C 27.821117 13.392151 13.381995 27.831299 13.381995 45.642822 Z"/>
    <path id="Rectangle-copy-2" fill="#ffffff" fill-rule="evenodd" stroke="#2f3737" stroke-width="6.693538" d="M 31.630171 196.627899 C 31.630171 206.373871 39.530823 214.274506 49.276772 214.274506 L 450.114929 214.274506 C 459.860901 214.274506 467.761536 206.373871 467.761536 196.627899 L 467.761536 48.692078 C 467.761536 38.946106 459.860901 31.045471 450.114929 31.045471 L 49.276772 31.045471 C 39.530823 31.045471 31.630171 38.946106 31.630171 48.692078 Z"/>
</svg>
